<svg height="298.66666" viewBox="0 0 298.66666 298.66666" width="298.66666" xmlns="http://www.w3.org/2000/svg"><g fill-rule="evenodd" transform="matrix(.13333333 0 0 -.13333333 0 298.66666)"><path d="m1120 2240c618.55 0 1120-501.44 1120-1120 0-618.559-501.45-1120-1120-1120-618.559 0-1120 501.441-1120 1120 0 618.56 501.441 1120 1120 1120" fill="#f58051"/><path d="m826 510c-96 0-328.004 9-422 165-94 156 43.004 271 37 415-5 144-81 245-26 407s237.996 56 385 97 176 296 309 296 172-151 317-207 284 17 389-89 40-185 40-259 116-97 116-245-16-139-66-248c-50-110-22-178-204-214s-237-23-305-65c-68-43-212-223-343-223-130.996 0-132 170-227 170" fill="#fff"/><path d="m609 1589c-1.996-4-3-8-5-12-54-162 22-263 27-407s-132-260-37-415 326-165 422-165c93 0 96-159 214-170-56-44-118-81-177-81-130.996 0-130.996 170-227 170-96 0-328.004 9-422 165-94 156 43.004 271 37 415-5 144-81 245-26 407 32.004 96 107.004 99 194 93z" fill="#fef3ed"/><path d="m490 1580c-6-10-11-21-15-33-55-162 21-263 26-407s-132-260-37-415 326-165 422-165c96.004 0 96.004-170 227-170 57 0 116 33 170 75-68-61-151-125-230-125-130.996 0-130.996 170-227 170-96 0-328.004 9-422 165-94 156 43.004 271 37 415-5 144-81 245-26 407 15 47 42.004 71 75 83z" fill="#fde5d7"/><path d="m1185 1470c196.06 0 355-158.94 355-355 0-196.07-158.94-355-355-355-196.059 0-355 158.93-355 355 0 196.06 158.941 355 355 355" fill="#f69b21"/><path d="m1127 1465c-83-65-137-166-137-280 0-196 159-355 355-355 20 0 39 2 58 5-60-47-136-75-218-75-196 0-355 159-355 355 0 176 129 323 297 350" fill="#f79021"/><path d="m1123 1465c-130.996-52-223-180-223-330 0-196 159-355 355-355 21 0 42 2 62 5-41-16-85-25-132-25-196 0-355 159-355 355 0 175 126 320 293 350" fill="#f68522"/><path d="m1385 1250c52.47 0 95-51.49 95-115 0-63.52-42.53-115-95-115s-95 51.48-95 115c0 63.51 42.53 115 95 115" fill="#f2ce83"/></g></svg>